<svg width="64" height="68" viewBox="0 0 64 68" fill="none" xmlns="http://www.w3.org/2000/svg">
<path d="M63.9238 5.67768C63.9192 2.54519 61.3925 0 58.2891 0H58.2818L-40.3732 0.136798C-41.8782 0.138749 -43.2925 0.732121 -44.3554 1.80743C-45.418 2.88296 -46.0019 4.31186 -46 5.83009L-45.9237 61.7699C-45.9218 63.2885 -45.3338 64.7157 -44.2681 65.7882C-43.2045 66.8587 -41.7919 67.4478 -40.2895 67.4478H-40.2819L58.3728 67.311C61.4791 67.3066 64.0033 64.753 63.9996 61.6177L63.9238 5.67768ZM52.0999 5.69416L9.0042 35.9251L-34.175 5.81383L52.0999 5.69416ZM53 61.7699L-34.8614 61.7547C-37.5353 61.7699 -36.8333 61.7547 -36.8333 61.7547C-40.2895 61.7547 -40.2935 58.8104 -40.2935 58.8104L-40.3623 8.41062L7.40685 41.7229C7.88895 42.0592 8.44862 42.227 9.00851 42.227C9.57075 42.227 10.1334 42.0572 10.6166 41.7184L58.2929 8.27447L58.3651 58.8024C58.3651 58.8024 58.3728 61.7699 54.8333 61.7699H53Z" fill="#E13190" fill-opacity="0.7"/>
</svg>
