<svg width="49" height="49" viewBox="0 0 49 49" fill="none" xmlns="http://www.w3.org/2000/svg">
<path d="M48.8636 25.3169L43.2716 10.2015C43.0685 9.6523 42.6636 9.21513 42.1315 8.97051C41.5995 8.72589 41.0041 8.70292 40.4549 8.9062L13.1874 18.9939C12.6382 19.1971 12.201 19.602 11.9563 20.1339C11.7117 20.6659 11.6888 21.2614 11.892 21.8105L17.484 36.9259C17.6871 37.4751 18.092 37.9123 18.6241 38.157C18.916 38.2913 19.227 38.3586 19.539 38.3586C19.7956 38.3586 20.0529 38.3131 20.3009 38.2213L47.5684 28.1336H47.5685C48.7019 27.7142 49.283 26.4506 48.8636 25.3169ZM38.9561 11.7982L30.4981 23.8897L16.2071 20.2142L38.9561 11.7982ZM19.1448 35.0973L14.2942 21.9859L25.5281 24.8754L19.1448 35.0973ZM21.52 35.4328L27.7553 25.4481L30.6878 26.2024C30.7788 26.2255 30.8709 26.2376 30.9607 26.2376C31.3137 26.2376 31.6513 26.0665 31.8596 25.7695L33.595 23.2865L44.8276 26.8101L21.52 35.4328ZM34.9138 21.4028L41.5616 11.8972L46.414 25.0103L34.9138 21.4028Z" fill="#E13190" fill-opacity="0.8"/>
<path d="M12.7706 37.2262C12.5606 36.6584 11.9297 36.3686 11.3623 36.5785L7.23159 38.1066C6.66378 38.3168 6.3739 38.9473 6.58387 39.515C6.74752 39.9575 7.16632 40.2311 7.61201 40.2311C7.73824 40.2311 7.86687 40.2091 7.99224 40.1626L12.1228 38.6345C12.6908 38.4246 12.9807 37.794 12.7706 37.2262Z" fill="#E13190" fill-opacity="0.8"/>
<path d="M7.17989 27.0501C6.96972 26.4823 6.33913 26.1926 5.77152 26.4024L3.2217 27.3457C2.65389 27.5559 2.36401 28.1863 2.57398 28.7541C2.73763 29.1964 3.15653 29.4702 3.60212 29.4702C3.72835 29.4702 3.85698 29.4481 3.98235 29.4017L6.53217 28.4584C7.09997 28.2485 7.38996 27.6179 7.17989 27.0501Z" fill="#E13190" fill-opacity="0.8"/>
<path d="M4.01909 35.3535C3.80892 34.7857 3.17834 34.4958 2.61072 34.7058L0.716086 35.4067C0.148279 35.6169 -0.141606 36.2474 0.0683668 36.8151C0.232019 37.2575 0.650816 37.5312 1.09651 37.5312C1.22274 37.5312 1.35136 37.5092 1.47673 37.4627L3.37137 36.7618C3.93927 36.5518 4.22916 35.9213 4.01909 35.3535Z" fill="#E13190" fill-opacity="0.8"/>
</svg>
