<svg width="171" height="149" viewBox="0 0 171 149" fill="none" xmlns="http://www.w3.org/2000/svg">
<path d="M132.12 132.133H132.406C133.963 132.149 135.471 132.674 136.705 133.629C138.53 134.988 140.749 135.703 143.017 135.661H163.693C164.582 135.661 165.434 135.306 166.062 134.673C166.69 134.04 167.043 133.181 167.043 132.286C167.043 131.391 166.69 130.533 166.062 129.9C165.434 129.267 164.582 128.912 163.693 128.912H164.674C165.124 128.928 165.573 128.854 165.994 128.692C166.415 128.53 166.799 128.284 167.123 127.969C167.448 127.655 167.706 127.277 167.882 126.859C168.058 126.442 168.149 125.993 168.149 125.539C168.149 125.085 168.058 124.636 167.882 124.219C167.706 123.801 167.448 123.424 167.123 123.109C166.799 122.794 166.415 122.548 165.994 122.386C165.573 122.224 165.124 122.15 164.674 122.167H165.331C166.198 122.134 167.018 121.765 167.619 121.136C168.221 120.507 168.557 119.667 168.557 118.794C168.557 117.921 168.221 117.081 167.619 116.452C167.018 115.824 166.198 115.454 165.331 115.422H165.984C166.434 115.438 166.883 115.364 167.303 115.202C167.724 115.04 168.108 114.794 168.433 114.479C168.757 114.165 169.015 113.787 169.191 113.37C169.368 112.952 169.458 112.503 169.458 112.049C169.458 111.595 169.368 111.146 169.191 110.729C169.015 110.311 168.757 109.934 168.433 109.619C168.108 109.304 167.724 109.058 167.303 108.896C166.883 108.735 166.434 108.66 165.984 108.677L150.019 108.434L149.982 102.305C149.982 98.8458 149.727 96.0164 149.727 96.0164C149.718 95.1482 149.491 94.2965 149.066 93.5412C147.316 90.5579 143.947 91.8864 143.947 91.8864C143.947 91.8864 144.1 96.2215 143.434 98.8785C142.994 100.617 141.12 103.251 139.857 104.435C138.069 106.131 136.855 108.35 136.386 110.779C136.153 111.941 135.53 112.986 134.621 113.739C133.713 114.492 132.574 114.907 131.398 114.914L132.12 132.133Z" fill="#D0BAFF"/>
<path d="M106.382 115.217C106.374 122.334 108.258 129.324 111.837 135.461H126.645V111.823H106.534C106.442 112.965 106.382 114.074 106.382 115.217Z" fill="#D0BAFF"/>
<path d="M166.729 116.34H158.321V114.475H166.743C167.382 114.47 167.994 114.211 168.445 113.753C168.896 113.296 169.149 112.677 169.149 112.033V111.804C169.148 111.158 168.892 110.539 168.439 110.082C167.985 109.625 167.37 109.368 166.729 109.366H149.991C149.746 109.366 149.51 109.268 149.337 109.093C149.163 108.919 149.066 108.681 149.066 108.434V102.374C149.066 98.9997 148.816 96.1982 148.816 96.1702C148.813 96.1516 148.813 96.1329 148.816 96.1143C148.808 95.4023 148.624 94.7035 148.279 94.0819C147.947 93.5055 147.438 93.0541 146.828 92.7966C146.218 92.5391 145.541 92.4895 144.901 92.6556C144.901 94.054 144.873 97.0652 144.345 99.1814C143.883 101.046 141.935 103.843 140.495 105.19C138.845 106.752 137.727 108.799 137.302 111.04C137.031 112.413 136.296 113.649 135.222 114.538C134.148 115.427 132.802 115.914 131.412 115.916V114.051C132.377 114.05 133.312 113.71 134.056 113.091C134.801 112.472 135.309 111.612 135.493 110.658C135.991 108.036 137.304 105.641 139.241 103.819C140.463 102.687 142.175 100.212 142.55 98.72C143.175 96.2495 143.036 92.0542 143.036 92.0123C143.029 91.8195 143.082 91.6295 143.188 91.4683C143.293 91.3072 143.445 91.183 143.624 91.1127C145.04 90.5486 148.172 90.2596 149.875 93.159C150.376 94.0418 150.648 95.0372 150.667 96.0537C150.694 96.3753 150.921 99.0789 150.921 102.398V107.525H166.729C167.861 107.526 168.947 107.98 169.748 108.787C170.548 109.593 170.999 110.687 171 111.828V112.033C171 113.174 170.55 114.269 169.749 115.077C168.948 115.884 167.862 116.339 166.729 116.34Z" fill="#947DF0"/>
<path d="M166.035 123.313H160.38V121.449H166.035C166.677 121.449 167.293 121.192 167.748 120.735C168.202 120.278 168.458 119.658 168.46 119.011V118.782C168.458 118.135 168.202 117.514 167.748 117.057C167.293 116.599 166.677 116.341 166.035 116.34H164.535V114.475H166.035C167.168 114.477 168.255 114.931 169.057 115.738C169.858 116.546 170.309 117.641 170.311 118.782V119.025C170.304 120.164 169.851 121.254 169.05 122.057C168.249 122.86 167.165 123.312 166.035 123.313Z" fill="#947DF0"/>
<path d="M165.34 130.291H161.768V128.427H165.34C165.983 128.426 166.599 128.168 167.054 127.71C167.508 127.252 167.764 126.632 167.765 125.984V125.756C167.764 125.108 167.508 124.488 167.054 124.03C166.599 123.572 165.983 123.314 165.34 123.313H163.846V121.449H165.34C166.474 121.45 167.561 121.904 168.363 122.712C169.164 123.519 169.615 124.614 169.616 125.756V125.984C169.615 127.126 169.164 128.221 168.363 129.028C167.561 129.836 166.474 130.29 165.34 130.291Z" fill="#947DF0"/>
<path d="M126.65 136.566H111.319V134.701H125.725V112.853H106.493V110.989H126.669C126.914 110.989 127.149 111.087 127.323 111.262C127.497 111.437 127.594 111.674 127.594 111.921V135.633C127.594 135.757 127.57 135.88 127.522 135.994C127.474 136.109 127.404 136.212 127.316 136.299C127.229 136.386 127.124 136.454 127.01 136.5C126.895 136.546 126.773 136.568 126.65 136.566Z" fill="#947DF0"/>
<path d="M163.957 137.265H143.17C140.73 137.303 138.345 136.533 136.382 135.074C135.321 134.246 134.021 133.791 132.68 133.778H126.159V131.913H132.684C134.426 131.926 136.116 132.512 137.497 133.582C139.141 134.799 141.135 135.437 143.175 135.4H163.961C164.604 135.399 165.22 135.141 165.675 134.683C166.129 134.226 166.385 133.605 166.386 132.958V132.729C166.385 132.082 166.129 131.462 165.674 131.005C165.22 130.548 164.604 130.291 163.961 130.291H162.462V128.427H163.961C165.094 128.428 166.18 128.882 166.982 129.688C167.783 130.494 168.235 131.588 168.237 132.729V132.958C168.235 134.1 167.783 135.195 166.981 136.002C166.178 136.809 165.091 137.263 163.957 137.265Z" fill="#947DF0"/>
<path d="M131.425 114.05L129.931 114.112L130.698 132.988L132.192 132.926L131.425 114.05Z" fill="#947DF0"/>
<path d="M10.0185 143.077C7.00604 141.553 5.80752 137.302 7.40401 133.797C8.84778 130.627 12.7349 128.231 19.3152 131C29.4587 135.256 35.7289 132.547 38.2139 128.59C39.9492 125.821 39.8058 122.53 37.8761 120.791L39.1116 119.393C41.7169 121.752 41.9992 126.035 39.778 129.573C36.8904 134.174 29.8104 137.414 18.6026 132.706C14.0445 130.79 10.4859 131.485 9.08841 134.57C7.91303 137.143 8.73672 140.336 10.8515 141.409L10.0185 143.077Z" fill="#947DF0"/>
<path d="M27.0756 148.764L26.9784 146.9C27.8672 146.855 28.7527 146.757 29.6299 146.606L29.94 148.447C28.9917 148.606 28.0354 148.712 27.0756 148.764ZM24.188 148.741C23.235 148.679 22.2864 148.563 21.3467 148.391L21.6892 146.559C22.5643 146.724 23.448 146.837 24.3361 146.9L24.188 148.741ZM32.7443 147.809L32.2399 146.014C33.0966 145.763 33.9399 145.467 34.7665 145.128L35.4513 146.862C34.5653 147.223 33.6618 147.539 32.7443 147.809ZM18.5332 147.673C17.6183 147.388 16.7192 147.054 15.84 146.671L16.5665 144.961C17.3875 145.315 18.2262 145.626 19.0792 145.893L18.5332 147.673ZM38.0705 145.678L37.2237 144.019C38.015 143.613 38.8016 143.157 39.5652 142.672L40.5555 144.247C39.7457 144.765 38.9312 145.245 38.0705 145.678ZM13.2671 145.408C12.7581 145.128 12.249 144.83 11.7539 144.518L12.7303 142.933C13.1931 143.227 13.6789 143.511 14.1556 143.772L13.2671 145.408ZM42.8831 142.611L41.7586 141.129C42.4644 140.591 43.1381 140.012 43.7762 139.395L45.0951 140.7C44.4052 141.381 43.6726 142.016 42.9016 142.602L42.8831 142.611Z" fill="#947DF0"/>
<path d="M31.3143 106.104L36.2888 99.9133C36.5865 99.541 37.0185 99.3026 37.4902 99.2502C37.9619 99.1978 38.4351 99.3356 38.8062 99.6336L47.8344 106.854C48.1938 107.14 48.4309 107.554 48.4971 108.011C48.5633 108.468 48.4537 108.933 48.1908 109.311L42.883 116.978C41.7671 118.595 40.1113 119.754 38.2178 120.244C36.3243 120.733 34.3192 120.52 32.5683 119.645C26.7839 116.755 17.6631 110.285 10.9347 100.426L11.0227 100.552C4.29429 90.6745 1.57332 79.7763 0.985624 73.3017C0.803655 71.3408 1.32679 69.3794 2.45978 67.7744C3.59277 66.1694 5.26028 65.0276 7.15871 64.557L16.1685 62.3149C16.6125 62.2124 17.0787 62.2834 17.4728 62.5135C17.867 62.7436 18.1599 63.1157 18.2925 63.5548L21.7353 74.5928C21.8066 74.8221 21.8319 75.0632 21.8099 75.3024C21.7878 75.5415 21.7188 75.7739 21.6069 75.9859C21.495 76.198 21.3423 76.3856 21.1578 76.5377C20.9733 76.6899 20.7607 76.8036 20.5322 76.8723L13.0171 79.1004C12.6701 79.2037 12.3472 79.3763 12.0677 79.6079C11.7882 79.8395 11.5579 80.1254 11.3903 80.4486C11.2228 80.7717 11.1216 81.1255 11.0926 81.4889C11.0636 81.8523 11.1075 82.2178 11.2217 82.5638C12.797 87.2476 14.9551 91.7114 17.6446 95.8486C20.2962 99.7268 24.2018 103.708 27.4827 106.49C27.7578 106.722 28.0762 106.896 28.419 107.003C28.7619 107.109 29.1224 107.145 29.4793 107.109C29.8362 107.073 30.1824 106.965 30.4975 106.793C30.8126 106.62 31.0903 106.386 31.3143 106.104Z" fill="#D0BAFF"/>
<path d="M10.8794 100.323L10.9205 100.383L10.9615 100.442L10.8794 100.323Z" fill="#7BC3FF"/>
<path d="M16.3715 78.2349L21.6716 76.5198L17.2146 62.5446L11.9145 64.2598L16.3715 78.2349Z" fill="#D0BAFF"/>
<path d="M45.0798 112.548L48.5786 108.186L37.2444 98.9606L33.7456 103.322L45.0798 112.548Z" fill="#D0BAFF"/>
<path d="M41.7077 89.2248L39.8567 89.1269C39.9892 86.4811 39.2759 83.8622 37.8217 81.6548C36.3675 79.4474 34.2489 77.7679 31.7771 76.8629L32.4111 75.1103C35.2546 76.1535 37.6915 78.0868 39.3645 80.627C41.0376 83.1671 41.8588 86.1803 41.7077 89.2248Z" fill="#947DF0"/>
<path d="M51.1432 89.8308L49.2922 89.8075C49.3479 84.9587 47.9054 80.2125 45.1643 76.2262C42.4233 72.24 38.5195 69.211 33.9937 67.5589L34.623 65.8015C39.5103 67.5867 43.7257 70.8584 46.6855 75.1636C49.6454 79.4687 51.2031 84.5944 51.1432 89.8308Z" fill="#947DF0"/>
<path d="M60.8423 91.6767L58.9913 91.5042C59.1865 89.401 59.171 87.2834 58.9451 85.1834L60.7961 84.983C61.0336 87.207 61.0491 89.4495 60.8423 91.6767Z" fill="#947DF0"/>
<path d="M51.9344 68.4911C47.9033 63.573 42.4767 60.0129 36.3813 58.2874L36.8857 56.4928C43.34 58.3157 49.0876 62.0806 53.3596 67.2838L51.9344 68.4911Z" fill="#947DF0"/>
<path d="M36.1546 121.402C34.7697 121.407 33.4025 121.088 32.1611 120.47C25.8353 117.309 16.7839 110.56 10.2777 101.088L10.2129 100.99C3.71586 91.4017 0.707981 80.4708 0.0601308 73.3902C-0.13116 71.2091 0.455566 69.0307 1.71499 67.2461C2.97442 65.4614 4.82408 64.1874 6.93197 63.6527L15.9417 61.4105C16.6127 61.2483 17.3198 61.348 17.9207 61.6896C18.5217 62.0312 18.972 62.5893 19.181 63.2518L22.6192 74.2759C22.7275 74.6232 22.7661 74.9887 22.7328 75.3512C22.6995 75.7137 22.595 76.0659 22.4253 76.3873C22.2557 76.7088 22.0242 76.993 21.7445 77.2235C21.4648 77.454 21.1423 77.6261 20.796 77.7299L13.2763 79.9814C13.045 80.0489 12.8299 80.1637 12.6445 80.3184C12.459 80.4732 12.307 80.6647 12.1981 80.881C12.0882 81.09 12.0225 81.3197 12.005 81.5555C11.9874 81.7913 12.0185 82.0283 12.0963 82.2514C13.6443 86.8549 15.7684 91.2408 18.4174 95.3032C21.1938 99.1827 24.443 102.695 28.0889 105.759C28.265 105.91 28.4699 106.024 28.6911 106.093C28.9123 106.162 29.1451 106.184 29.3753 106.16C29.6129 106.14 29.8441 106.072 30.0549 105.96C30.2656 105.848 30.4516 105.694 30.6016 105.507L35.5762 99.3027C36.028 98.7404 36.6816 98.3801 37.3953 98.2998C38.109 98.2196 38.8254 98.4258 39.3893 98.8738L48.4175 106.094C48.964 106.528 49.3247 107.157 49.4254 107.85C49.5261 108.544 49.3592 109.25 48.9589 109.823L43.6512 117.491C42.8061 118.703 41.6834 119.691 40.3783 120.371C39.0733 121.052 37.6243 121.406 36.1546 121.402ZM11.7492 99.9599C18.0565 109.18 26.8487 115.739 32.9848 118.806C34.5393 119.572 36.3142 119.755 37.9903 119.32C39.6664 118.886 41.1339 117.864 42.1287 116.438L47.4318 108.77C47.5592 108.586 47.6124 108.361 47.5806 108.139C47.5488 107.917 47.4344 107.716 47.2606 107.577L38.2324 100.361C38.0517 100.215 37.8213 100.148 37.5915 100.173C37.3618 100.199 37.1513 100.315 37.0061 100.496L32.0315 106.7C31.7296 107.082 31.3543 107.398 30.928 107.629C30.5018 107.861 30.0334 108.003 29.5512 108.047C29.0765 108.096 28.5969 108.048 28.1413 107.905C27.6856 107.763 27.2633 107.529 26.8996 107.218C23.1259 104.047 19.7631 100.41 16.8904 96.394C14.1486 92.1853 11.9483 87.643 10.3424 82.8761C10.1843 82.4158 10.1212 81.9278 10.157 81.442C10.1928 80.9563 10.3268 80.483 10.5507 80.0513C10.7764 79.6131 11.0874 79.2251 11.465 78.9104C11.8426 78.5957 12.2792 78.3607 12.7487 78.2194L20.2684 75.9633C20.3799 75.9312 20.4837 75.8766 20.5736 75.8029C20.6634 75.7292 20.7375 75.6379 20.7913 75.5344C20.8987 75.3258 20.9203 75.0831 20.8515 74.8585L17.4086 63.8205C17.3421 63.6071 17.1975 63.4272 17.0041 63.3173C16.8108 63.2073 16.5832 63.1756 16.3674 63.2285L7.3577 65.4706C5.67931 65.8961 4.20638 66.9102 3.20313 68.3308C2.19989 69.7515 1.73199 71.4857 1.88337 73.2224C2.53122 80.0839 5.46042 90.7025 11.7446 99.9459L11.7492 99.9599Z" fill="#947DF0"/>
<path d="M12.9854 63.3654L11.2129 63.9028L15.4672 78.1416L17.2396 77.6042L12.9854 63.3654Z" fill="#947DF0"/>
<path d="M33.4337 102.259L32.3113 103.741L44.6416 113.214L45.764 111.731L33.4337 102.259Z" fill="#947DF0"/>
<path d="M151.472 49.5148L160.931 45.9022L160.218 37.6936L150.297 35.7918C149.325 32.4558 147.857 29.2874 145.942 26.3945L150.875 17.5146L145.091 11.6879L136.275 16.6569C133.402 14.7337 130.257 13.2581 126.946 12.2799L125.058 2.28598L116.909 1.55881L113.323 11.0866C109.897 11.4731 106.548 12.375 103.388 13.7622L95.5626 7.3249L88.862 12.0515L92.1938 21.6725C89.8142 24.1843 87.8236 27.0426 86.2891 30.1515L76.1826 30.2867L74.0632 38.2483L82.7537 43.4597C82.5391 46.9205 82.8385 50.3942 83.6422 53.7659L75.9929 60.413L79.4496 67.8712L89.4219 66.2397C90.4457 67.6341 91.5702 68.9506 92.7861 70.1785C94.0063 71.4035 95.3131 72.5377 96.6963 73.572L95.0767 83.6125L102.481 87.0946L109.089 79.4034C112.441 80.2142 115.894 80.5159 119.334 80.2983L124.512 89.0524L132.407 86.9268L132.541 76.751C135.626 75.202 138.464 73.1955 140.958 70.7985L150.514 74.1593L155.206 67.405L148.811 59.5227C150.192 56.3403 151.089 52.9664 151.472 49.5148ZM133.17 60.2359C130.123 63.306 126.24 65.3969 122.013 66.2442C117.786 67.0914 113.404 66.6569 109.422 64.9957C105.44 63.3344 102.037 60.521 99.6423 56.9112C97.2478 53.3014 95.9697 49.0574 95.9697 44.7159C95.9697 40.3744 97.2478 36.1304 99.6423 32.5206C102.037 28.9108 105.44 26.0974 109.422 24.4362C113.404 22.7749 117.786 22.3404 122.013 23.1876C126.24 24.0349 130.123 26.1258 133.17 29.1959C135.197 31.2342 136.804 33.6549 137.901 36.3196C138.998 38.9842 139.563 41.8406 139.563 44.7252C139.563 47.6099 138.998 50.4662 137.901 53.1309C136.804 55.7956 135.197 58.2163 133.17 60.2545V60.2359Z" fill="#D0BAFF"/>
<path d="M124.508 89.9939C124.347 89.9921 124.189 89.9482 124.051 89.8665C123.912 89.7848 123.797 89.668 123.716 89.5278L118.83 81.2679C115.671 81.4186 112.507 81.1426 109.422 80.4475L103.193 87.7285C103.062 87.8826 102.884 87.9892 102.687 88.0321C102.49 88.075 102.284 88.0519 102.101 87.9662L94.6972 84.4842C94.5138 84.3983 94.3634 84.2543 94.2689 84.0742C94.1745 83.894 94.1413 83.6877 94.1743 83.4867L95.706 74.0008C94.4506 73.0341 93.2603 71.9846 92.1428 70.8591C91.0268 69.7339 89.985 68.5365 89.0239 67.2745L79.6069 68.8128C79.4081 68.8449 79.2043 68.8109 79.0264 68.7158C78.8485 68.6208 78.7063 68.4699 78.6212 68.286L75.1599 60.8279C75.0748 60.6436 75.0519 60.4365 75.0945 60.2379C75.1371 60.0393 75.2429 59.8602 75.3959 59.7278L82.624 53.4536C81.9306 50.346 81.6536 47.1588 81.8003 43.9771L73.5912 39.05C73.4175 38.9461 73.2823 38.7879 73.2062 38.5993C73.1302 38.4108 73.1175 38.2024 73.1701 38.0059L75.2895 30.0443C75.3417 29.8487 75.4558 29.6756 75.6144 29.5511C75.773 29.4266 75.9676 29.3576 76.1687 29.3544L85.7152 29.2239C87.1701 26.3995 88.9924 23.7832 91.134 21.4441L87.9873 12.3545C87.9216 12.1632 87.9195 11.9557 87.9813 11.7631C88.0431 11.5705 88.1654 11.4034 88.3297 11.287L95.0304 6.56044C95.1955 6.44424 95.3937 6.38547 95.595 6.39304C95.7962 6.40061 95.9896 6.47411 96.1456 6.60239L103.55 12.6621C106.466 11.4377 109.532 10.6131 112.666 10.2103L116.053 1.20921C116.127 1.02339 116.258 0.866408 116.427 0.761477C116.596 0.656547 116.795 0.609235 116.992 0.62654L125.141 1.34439C125.342 1.36217 125.532 1.44555 125.682 1.58186C125.831 1.71817 125.932 1.89994 125.97 2.09953L127.751 11.5388C130.772 12.4842 133.652 13.8374 136.312 15.5615L144.642 10.8675C144.819 10.7678 145.023 10.7293 145.224 10.758C145.424 10.7866 145.61 10.8808 145.752 11.026L151.537 16.8527C151.679 16.9963 151.771 17.1828 151.799 17.3839C151.826 17.585 151.788 17.7896 151.689 17.9668L147.03 26.3572C148.74 29.0374 150.084 31.9381 151.023 34.9807L160.394 36.7753C160.592 36.8131 160.772 36.9151 160.908 37.0657C161.043 37.2163 161.126 37.4073 161.143 37.6097L161.851 45.8416C161.87 46.0442 161.822 46.2472 161.715 46.4197C161.608 46.5923 161.448 46.7248 161.259 46.7972L152.328 50.2093C151.927 53.3664 151.106 56.4549 149.889 59.3922L155.905 66.8503C156.032 67.0075 156.105 67.2023 156.113 67.405C156.12 67.6077 156.062 67.8074 155.947 67.9737L151.254 74.7234C151.139 74.8889 150.973 75.0121 150.782 75.0743C150.591 75.1366 150.385 75.1345 150.195 75.0683L141.171 71.8986C138.849 74.0558 136.252 75.8915 133.448 77.357L133.332 86.9408C133.329 87.1433 133.26 87.3393 133.137 87.4991C133.013 87.6589 132.841 87.7738 132.647 87.8264L124.744 89.9613C124.666 89.9812 124.587 89.9922 124.508 89.9939ZM119.339 79.3754C119.499 79.3772 119.657 79.4211 119.796 79.5028C119.934 79.5846 120.05 79.7013 120.13 79.8415L124.947 87.9896L131.481 86.2089L131.606 76.7371C131.608 76.5652 131.657 76.3972 131.747 76.2516C131.838 76.106 131.967 75.9885 132.12 75.912C135.122 74.4078 137.883 72.4578 140.31 70.1273C140.432 70.0122 140.582 69.9325 140.745 69.8963C140.908 69.8602 141.078 69.8692 141.236 69.9222L150.13 73.0453L154.017 67.4517L148.071 60.11C147.963 59.9778 147.894 59.8182 147.87 59.6489C147.846 59.4795 147.869 59.3068 147.937 59.1498C149.278 56.0526 150.15 52.7702 150.523 49.4122C150.542 49.242 150.606 49.0802 150.71 48.9445C150.814 48.8089 150.952 48.7046 151.111 48.6431L159.903 45.2823L159.316 38.4767L150.061 36.7101C149.893 36.6772 149.738 36.5985 149.612 36.4825C149.487 36.3666 149.395 36.2178 149.348 36.0528C148.399 32.8081 146.971 29.7253 145.114 26.9072C145.02 26.7646 144.967 26.5987 144.96 26.4277C144.954 26.2567 144.994 26.0871 145.077 25.9377L149.667 17.6731L144.873 12.8439L136.669 17.468C136.52 17.5514 136.352 17.592 136.182 17.5854C136.012 17.5789 135.848 17.5253 135.706 17.4307C132.909 15.5578 129.849 14.12 126.627 13.1656C126.464 13.1173 126.317 13.0248 126.203 12.8982C126.089 12.7716 126.011 12.6157 125.979 12.4477L124.221 3.12502L117.464 2.53303L114.128 11.3896C114.068 11.5496 113.966 11.6899 113.832 11.7951C113.698 11.9004 113.538 11.9665 113.369 11.9862C110.034 12.3583 106.773 13.2352 103.698 14.5873C103.542 14.6556 103.371 14.6796 103.203 14.6566C103.035 14.6336 102.876 14.5644 102.744 14.4568L95.4561 8.46227L89.9031 12.3825L93.0729 21.3649C93.1255 21.5243 93.1344 21.6952 93.0986 21.8593C93.0627 22.0234 92.9835 22.1747 92.8693 22.2972C90.5528 24.7408 88.6153 27.5222 87.122 30.5477C87.0461 30.7017 86.9294 30.8314 86.7848 30.9227C86.6403 31.0141 86.4735 31.0633 86.3029 31.0652L76.8998 31.191L75.146 37.7868L83.2349 42.6393C83.3831 42.7252 83.5049 42.8508 83.5866 43.0022C83.6683 43.1537 83.7067 43.3249 83.6976 43.497C83.4886 46.8698 83.7787 50.2553 84.5583 53.5422C84.6002 53.7095 84.595 53.8853 84.5436 54.0499C84.4921 54.2145 84.3963 54.3615 84.2668 54.4745L77.1451 60.6554L80.0095 66.8457L89.2923 65.3261C89.4603 65.2988 89.6327 65.3187 89.7902 65.3837C89.9478 65.4486 90.0845 65.5561 90.1854 65.6943C91.1816 67.0516 92.2767 68.3324 93.4616 69.526C94.6475 70.7199 95.9189 71.8245 97.2654 72.8308C97.4026 72.9324 97.5093 73.0702 97.5738 73.2289C97.6383 73.3876 97.6581 73.5612 97.631 73.7305L96.1224 83.0765L102.268 85.9619L108.404 78.7927C108.515 78.6615 108.661 78.564 108.825 78.5114C108.988 78.4587 109.163 78.4528 109.329 78.4944C112.592 79.2821 115.953 79.5743 119.302 79.3614L119.339 79.3754Z" fill="#947DF0"/>
<path d="M117.719 67.75C113.246 67.75 108.874 66.414 105.155 63.9109C101.436 61.4078 98.5376 57.85 96.8259 53.6875C95.1143 49.525 94.6664 44.9447 95.539 40.5258C96.4116 36.1069 98.5655 32.0479 101.728 28.8621C104.891 25.6762 108.92 23.5066 113.307 22.6277C117.694 21.7487 122.241 22.1998 126.373 23.924C130.506 25.6481 134.038 28.5679 136.522 32.3141C139.007 36.0602 140.334 40.4645 140.334 44.97C140.328 51.0097 137.943 56.8003 133.703 61.0711C129.464 65.3418 123.715 67.7438 117.719 67.75ZM117.719 24.0592C113.612 24.0592 109.598 25.2859 106.183 27.5844C102.768 29.8828 100.107 33.1496 98.5356 36.9717C96.9642 40.7938 96.5533 44.9994 97.3548 49.0568C98.1564 53.1141 100.134 56.8409 103.039 59.7658C105.943 62.6907 109.643 64.6823 113.671 65.4888C117.699 66.2953 121.874 65.8804 125.668 64.2967C129.462 62.7129 132.705 60.0314 134.986 56.5913C137.267 53.1511 138.484 49.1069 138.483 44.97C138.481 39.4215 136.294 34.1004 132.401 30.1753C128.508 26.2502 123.227 24.042 117.719 24.0358V24.0592Z" fill="#947DF0"/>
<path d="M117.497 60.7579H117.104L117.15 58.8934H117.812C118.472 58.8771 119.131 58.8132 119.783 58.7023L120.093 60.5389C119.356 60.6656 118.61 60.7388 117.862 60.7579H117.497ZM114.123 60.3804C113.145 60.1661 112.19 59.8538 111.273 59.4481L112.023 57.7467C112.83 58.1061 113.67 58.3855 114.531 58.5811L114.123 60.3804ZM122.99 59.7325L122.328 57.9938C123.152 57.6751 123.942 57.2754 124.688 56.8005L125.678 58.376C124.828 58.9133 123.928 59.3645 122.99 59.7231V59.7325ZM108.644 57.9332C107.828 57.3483 107.069 56.6865 106.377 55.9568L107.719 54.6702C108.325 55.3147 108.993 55.8971 109.713 56.4089L108.644 57.9332ZM128.029 56.5348L126.77 55.1643C127.41 54.5526 127.99 53.8797 128.501 53.1553L130.01 54.2321C129.429 55.054 128.77 55.8173 128.043 56.5115L128.029 56.5348ZM104.531 53.5841C103.994 52.7296 103.541 51.8241 103.179 50.8805L104.905 50.214C105.223 51.0424 105.622 51.8371 106.095 52.5866L104.531 53.5841ZM131.481 51.5984L129.787 50.8339C130.148 50.0236 130.428 49.1788 130.62 48.3121L132.43 48.727C132.207 49.7128 131.889 50.6745 131.481 51.5984ZM102.374 47.9439C102.229 47.0736 102.154 46.1928 102.152 45.3102C102.152 45.1797 102.152 45.0539 102.152 44.928L104.003 44.97C104.003 45.0818 104.003 45.1984 104.003 45.3102C104.003 46.0914 104.07 46.8711 104.202 47.6409L102.374 47.9439ZM132.8 45.7251L130.949 45.6738C130.949 45.5526 130.949 45.4314 130.949 45.3149C130.949 44.5465 130.885 43.7794 130.759 43.0215L132.582 42.7092C132.727 43.5686 132.8 44.4386 132.8 45.3102C132.823 45.4454 132.823 45.5853 132.819 45.7251H132.8ZM104.332 42.3316L102.522 41.9261C102.736 40.9405 103.046 39.9787 103.448 39.0547L105.137 39.8098C104.793 40.6223 104.529 41.467 104.35 42.3316H104.332ZM130.065 40.4671C129.749 39.6383 129.353 38.8422 128.885 38.0898L130.449 37.0969C130.987 37.9505 131.438 38.8563 131.796 39.8005L130.065 40.4671ZM106.465 37.5071L104.952 36.4304C105.531 35.6055 106.188 34.839 106.914 34.1416L108.191 35.4934C107.561 36.1043 106.993 36.7756 106.493 37.4978L106.465 37.5071ZM127.289 35.9875C126.681 35.3429 126.013 34.759 125.294 34.2442L126.363 32.7246C127.181 33.3097 127.94 33.9732 128.631 34.7057L127.289 35.9875ZM110.292 33.8526L109.297 32.2818C110.143 31.7384 111.041 31.2809 111.976 30.916L112.647 32.6547C111.824 32.9716 111.033 33.3698 110.287 33.8433L110.292 33.8526ZM122.999 32.9204C122.195 32.5568 121.356 32.2757 120.495 32.0813L120.907 30.2587C121.887 30.483 122.842 30.8046 123.758 31.219L122.999 32.9204ZM115.188 31.9415L114.873 30.1049C115.862 29.9278 116.867 29.8529 117.872 29.8812V31.7457H117.492C116.719 31.744 115.946 31.8079 115.183 31.9368L115.188 31.9415Z" fill="#947DF0"/>
<path d="M70.4412 26.8579L75.0086 25.1145L74.6615 21.1477L69.872 20.2154C69.4012 18.6047 68.693 17.0743 67.7712 15.6753L70.1497 11.3868L67.3732 8.59003L63.1159 10.9906C61.7278 10.0607 60.2083 9.34727 58.6087 8.87437L57.6832 4.04521L53.7452 3.70027L52.0145 8.30102C50.3617 8.48642 48.7457 8.92007 47.2204 9.58755L43.4351 6.47844L40.1959 8.76249L41.8063 13.4238C40.6559 14.6359 39.6933 16.0156 38.9511 17.5165L34.0737 17.5864L33.051 21.4274L37.2482 23.9445C37.1443 25.6191 37.2877 27.3 37.6739 28.9322L33.9719 32.1438L35.6517 35.7564L40.4643 34.9639C40.9611 35.638 41.5055 36.2752 42.0932 36.8704C42.6814 37.4622 43.3125 38.0091 43.9812 38.5066L43.1991 43.359L46.7808 45.0418L49.9645 41.3127C51.5843 41.7053 53.2533 41.8514 54.916 41.7462L57.4148 45.974L61.2325 44.9439L61.2973 40.0262C62.7886 39.2803 64.1599 38.3123 65.3649 37.1548L69.9924 38.7769L72.2598 35.514L69.1733 31.7057C69.8342 30.1627 70.2616 28.5286 70.4412 26.8579ZM58.9511 29.375C58.0033 30.3306 56.7953 30.9815 55.4801 31.2454C54.1649 31.5093 52.8015 31.3744 51.5625 30.8577C50.3234 30.341 49.2643 29.4658 48.5192 28.3426C47.774 27.2195 47.3763 25.899 47.3763 24.5482C47.3763 23.1973 47.774 21.8768 48.5192 20.7537C49.2643 19.6306 50.3234 18.7553 51.5625 18.2386C52.8015 17.7219 54.1649 17.587 55.4801 17.8509C56.7953 18.1148 58.0033 18.7657 58.9511 19.7213C60.2213 21.0018 60.9348 22.738 60.9348 24.5482C60.9348 26.3583 60.2213 28.0945 58.9511 29.375Z" fill="#D0BAFF"/>
<path d="M57.1017 46.4905C56.9402 46.4896 56.7817 46.446 56.6421 46.3642C56.5025 46.2825 56.3865 46.1653 56.3057 46.0244L54.0938 42.2953C52.7182 42.3367 51.3424 42.2179 49.9938 41.9411L47.1664 45.2366C47.035 45.3907 46.8571 45.4973 46.66 45.5402C46.4629 45.5831 46.2572 45.56 46.0743 45.4744L42.4926 43.7916C42.311 43.7052 42.1622 43.5616 42.0687 43.3825C41.9752 43.2034 41.9421 42.9985 41.9744 42.7988L42.6685 38.4963C42.1266 38.0628 41.6119 37.5958 41.1275 37.0979C40.6358 36.6076 40.1723 36.0894 39.7393 35.5457L35.4727 36.2449C35.2732 36.2781 35.0684 36.2446 34.8895 36.1495C34.7107 36.0544 34.5677 35.9029 34.4824 35.7182L32.8119 32.1103C32.7269 31.9261 32.7039 31.7189 32.7465 31.5203C32.7891 31.3217 32.895 31.1426 33.0479 31.0102L36.3242 28.1668C36.046 26.8088 35.9264 25.4228 35.9679 24.0368L32.2659 21.804C32.0931 21.7004 31.9585 21.5429 31.8826 21.3553C31.8066 21.1678 31.7933 20.9604 31.8448 20.7646L32.8674 16.9189C32.9191 16.7217 33.0335 16.547 33.1931 16.4215C33.3528 16.2961 33.5488 16.2268 33.7513 16.2244L38.078 16.1685C38.7307 14.9485 39.5227 13.8096 40.438 12.775L39.0128 8.65904C38.946 8.46716 38.9433 8.25856 39.0051 8.065C39.0669 7.87145 39.1899 7.70356 39.3552 7.58692L42.5945 5.30286C42.7596 5.18667 42.9578 5.12789 43.159 5.13547C43.3603 5.14304 43.5536 5.21654 43.7097 5.34482L47.06 8.09967C48.3382 7.58614 49.6726 7.2278 51.035 7.03222L52.5713 2.95354C52.6421 2.76754 52.7701 2.60926 52.9367 2.50189C53.1032 2.39452 53.2995 2.3437 53.4968 2.35689L57.4348 2.70183C57.6357 2.71961 57.8254 2.80299 57.9749 2.9393C58.1244 3.07561 58.2256 3.25738 58.2632 3.45697L59.073 7.73609C60.3821 8.16985 61.6356 8.75816 62.8074 9.48875L66.6066 7.38649C66.7824 7.28735 66.9855 7.24873 67.1852 7.27649C67.3848 7.30426 67.5699 7.39689 67.7125 7.54031L70.489 10.3371C70.6314 10.4808 70.7234 10.6673 70.7509 10.8683C70.7785 11.0694 70.7402 11.2741 70.6417 11.4512L68.5316 15.2502C69.2662 16.438 69.8566 17.7103 70.29 19.0399L74.5381 19.8509C74.7369 19.889 74.9179 19.9916 75.0533 20.1432C75.1887 20.2947 75.2711 20.4868 75.2877 20.69L75.6117 24.6335C75.6248 24.8322 75.5743 25.03 75.4677 25.1977C75.3611 25.3655 75.204 25.4945 75.0194 25.5657L70.452 27.3091L69.8134 25.5657L73.7237 24.0695L73.5015 21.5104L69.3969 20.7226C69.2301 20.6902 69.0754 20.6122 68.9497 20.497C68.824 20.3819 68.7322 20.2342 68.6843 20.07C68.2412 18.5493 67.5718 17.105 66.6991 15.7862C66.6043 15.6431 66.5506 15.4763 66.5441 15.3044C66.5376 15.1324 66.5784 14.962 66.6621 14.812L68.7028 11.1389L66.8981 9.32561L63.2516 11.3813C63.1028 11.464 62.9343 11.5038 62.7645 11.4964C62.5947 11.489 62.4303 11.4346 62.2891 11.3393C60.9771 10.4635 59.542 9.79102 58.0318 9.34425C57.8682 9.29565 57.7211 9.20245 57.6068 9.07495C57.4925 8.94746 57.4154 8.79061 57.3839 8.62174L56.6019 4.48713L54.0614 4.26338L52.5806 8.20688C52.5196 8.36667 52.416 8.50644 52.2813 8.61086C52.1467 8.71529 51.986 8.78033 51.8171 8.79887C50.255 8.97646 48.728 9.38809 47.2867 10.0201C47.1306 10.0894 46.9586 10.1139 46.7895 10.0909C46.6205 10.0678 46.4611 9.99819 46.3288 9.88963L43.0896 7.22334L41.0026 8.70099L42.3908 12.6818C42.4435 12.8412 42.4523 13.012 42.4165 13.1762C42.3806 13.3403 42.3014 13.4916 42.1872 13.614C41.1005 14.7584 40.191 16.0611 39.4894 17.4783C39.4138 17.6315 39.2979 17.7608 39.1542 17.8521C39.0106 17.9434 38.8448 17.9931 38.675 17.9957L34.5102 18.0517L33.8485 20.5362L37.444 22.6897C37.5931 22.776 37.7153 22.9023 37.797 23.0547C37.8788 23.207 37.9168 23.3792 37.9068 23.552C37.8097 25.133 37.947 26.7198 38.314 28.26C38.3553 28.4278 38.3495 28.6038 38.2972 28.7684C38.2449 28.9331 38.1482 29.0798 38.0179 29.1923L34.8526 31.9378L35.9309 34.2685L40.054 33.5926C40.2216 33.5648 40.3936 33.584 40.5512 33.6481C40.7087 33.7122 40.8457 33.8188 40.9471 33.9562C41.4139 34.5937 41.9275 35.1951 42.4834 35.7555C43.0405 36.3145 43.6375 36.8317 44.2696 37.303C44.406 37.4052 44.5118 37.5431 44.5754 37.7018C44.6391 37.8605 44.6582 38.0338 44.6306 38.2027L43.9642 42.3606L46.2779 43.4467L49.0082 40.2583C49.1198 40.1271 49.2655 40.0296 49.4289 39.977C49.5924 39.9243 49.7671 39.9184 49.9337 39.96C51.4642 40.3301 53.0412 40.4669 54.6121 40.3655C54.7829 40.3564 54.9529 40.3951 55.1032 40.4774C55.2535 40.5597 55.3782 40.6823 55.4635 40.8317L57.6061 44.4582L60.0679 43.7916L60.1234 39.5964H61.9744L61.9096 44.5141C61.9065 44.7167 61.838 44.9127 61.7144 45.0724C61.5908 45.2322 61.4189 45.3472 61.2248 45.3998L57.4071 46.4299C57.3098 46.4687 57.2063 46.4892 57.1017 46.4905Z" fill="#947DF0"/>
<path d="M53.8625 32.031C52.3347 32.032 50.8411 31.5765 49.5704 30.7222C48.2997 29.8679 47.309 28.6532 46.7238 27.2317C46.1385 25.8102 45.9849 24.2458 46.2824 22.7364C46.5798 21.2269 47.315 19.8403 48.395 18.7518C49.4749 17.6633 50.8511 16.9219 52.3494 16.6213C53.8477 16.3207 55.4008 16.4745 56.8123 17.0632C58.2239 17.6519 59.4303 18.6491 60.2792 19.9286C61.128 21.208 61.5811 22.7124 61.5811 24.2513C61.5787 26.313 60.7648 28.2897 59.318 29.748C57.8711 31.2064 55.9092 32.0273 53.8625 32.031ZM53.8625 18.336C52.7008 18.3351 51.565 18.6812 50.5987 19.3306C49.6324 19.9801 48.879 20.9036 48.4339 21.9844C47.9887 23.0651 47.8717 24.2547 48.0978 25.4024C48.3239 26.5502 48.8828 27.6046 49.7038 28.4323C50.5249 29.26 51.5713 29.8239 52.7105 30.0525C53.8497 30.2811 55.0307 30.1643 56.104 29.7167C57.1773 29.2691 58.0947 28.5109 58.7401 27.5381C59.3856 26.5652 59.7301 25.4214 59.7301 24.2513C59.7289 22.6836 59.1105 21.1805 58.0105 20.0716C56.9105 18.9626 55.4187 18.3385 53.8625 18.336Z" fill="#947DF0"/>
</svg>
