<svg width="33" height="33" viewBox="0 0 33 33" fill="none" xmlns="http://www.w3.org/2000/svg">
<path d="M32.9748 12.736C32.9747 12.6863 32.9636 12.6114 32.9444 12.5682C32.8937 12.3842 32.7809 12.2162 32.6122 12.0989L27.8883 8.81515V5.29498C27.8883 4.82833 27.5098 4.44987 27.0432 4.44987H21.6086L16.9845 1.23507C16.6955 1.03391 16.3118 1.03308 16.0219 1.2334L11.368 4.44987H5.95714C5.49038 4.44987 5.11204 4.82833 5.11204 5.29498V8.7737L0.365191 12.0544C0.131678 12.2158 0.00534961 12.4738 0.00135352 12.7376C0.0010957 12.7426 0 12.7473 0 12.7525L0.0252012 31.0723C0.0255234 31.2964 0.114855 31.5112 0.273475 31.6695C0.4319 31.8275 0.646529 31.9162 0.870311 31.9162C0.870762 31.9162 0.871084 31.9162 0.871471 31.9162L32.1561 31.8732C32.6227 31.8725 33.0006 31.4936 33 31.0269L32.9748 12.736ZM27.8882 10.8737L30.5887 12.7505L27.8882 14.6279V10.8737ZM16.501 2.95732L18.6479 4.4498H14.3417L16.501 2.95732ZM6.80225 6.14008H26.198V15.803L19.6859 20.3303L17.0308 18.2707C17.0267 18.2675 17.0232 18.2655 17.0192 18.2626C16.7224 18.04 16.3027 18.0318 15.9948 18.2707L13.3204 20.3452L6.80225 15.8403V6.14008ZM5.11204 10.8283V14.6723L2.33114 12.7503L5.11204 10.8283ZM1.69241 14.3644L11.9191 21.432L1.71304 29.3484L1.69241 14.3644ZM3.34351 30.2226L16.5128 20.0078L29.6349 30.1865L3.34351 30.2226ZM21.0855 21.4159L31.2868 14.3237L31.3075 29.3451L21.0855 21.4159Z" fill="#E13190"/>
<path d="M22.2214 9.52057H10.7787C10.3121 9.52057 9.93359 9.89904 9.93359 10.3657C9.93359 10.8323 10.3121 11.2108 10.7787 11.2108H22.2214C22.6882 11.2108 23.0666 10.8323 23.0666 10.3657C23.0666 9.89904 22.6882 9.52057 22.2214 9.52057Z" fill="#E13190"/>
<path d="M22.2214 13.9151H10.7787C10.3121 13.9151 9.93359 14.2936 9.93359 14.7602C9.93359 15.2269 10.3121 15.6053 10.7787 15.6053H22.2214C22.6882 15.6053 23.0666 15.2269 23.0666 14.7602C23.0666 14.2936 22.6882 13.9151 22.2214 13.9151Z" fill="#E13190"/>
</svg>
