<svg width="32" height="39" viewBox="0 0 32 39" fill="none" xmlns="http://www.w3.org/2000/svg">
<path d="M30.2963 5.9702C30.8161 5.9702 31.2376 5.54874 31.2376 5.02887V2.0587C31.2376 0.923584 30.3147 0 29.1799 0H9.26563C9.01601 0 8.7766 0.0992519 8.59996 0.275742L0.801865 8.07384C0.625375 8.25033 0.526123 8.48981 0.526123 8.73943V36.9412C0.526199 38.0764 1.44971 39 2.5849 39H29.1798C30.3146 39 31.2376 38.0764 31.2376 36.9413V22.5689C31.2376 22.0491 30.8162 21.6276 30.2963 21.6276C29.7765 21.6276 29.355 22.049 29.355 22.5689V36.9413C29.355 37.0383 29.2764 37.1173 29.18 37.1173H2.58497C2.48793 37.1173 2.40894 37.0383 2.40894 36.9413V9.68091H8.14925C9.28406 9.68091 10.2071 8.75771 10.2071 7.62298V1.88266H29.1799C29.2764 1.88266 29.3549 1.96165 29.3549 2.0587V5.02887C29.3549 5.54874 29.7764 5.9702 30.2963 5.9702ZM8.32445 7.6229C8.32445 7.71956 8.24584 7.79817 8.14925 7.79817H3.74058L8.32445 3.21415V7.6229Z" fill="#686464"/>
</svg>
