<svg width="115" height="166" viewBox="0 0 115 166" fill="none" xmlns="http://www.w3.org/2000/svg">
<g clip-path="url(#clip0)">
<path d="M113.044 141.697L113.117 141.753L112.952 141.543C112.833 141.375 112.695 141.221 112.562 141.077L84.7494 106.43L84.6441 106.737C83.1259 105.323 81.2335 104.391 79.2006 104.058L69.1934 102.418L63.6629 97.5163C61.5264 95.6355 58.7449 94.6906 55.9257 94.8879C53.1065 95.0852 50.4785 96.4086 48.6155 98.5693C48.5009 98.6998 48.4276 98.8536 48.3222 98.9887L16.7337 93.8028C15.3512 93.5758 13.9383 93.6279 12.5757 93.9561C11.213 94.2844 9.92728 94.8823 8.79189 95.7158C7.65649 96.5494 6.69366 97.6022 5.95837 98.8141C5.22308 100.026 4.72973 101.373 4.50649 102.779C4.28325 104.185 4.33449 105.622 4.65728 107.007C4.98008 108.393 5.56814 109.7 6.38783 110.855C7.20752 112.01 8.24279 112.989 9.43459 113.736C10.6264 114.484 11.9513 114.986 13.3338 115.213L59.7773 122.84L97.3501 156.136C99.3117 157.904 101.846 158.874 104.467 158.86C107.089 158.846 109.613 157.848 111.556 156.059C113.498 154.27 114.724 151.814 114.997 149.163C115.27 146.512 114.571 143.852 113.034 141.692L113.044 141.697Z" fill="#566CD3"/>
<path d="M50.6591 128.711V128.734C50.824 128.883 50.9844 129.028 51.1173 129.2C50.941 129.062 50.7865 128.897 50.6591 128.711Z" fill="#F99AB6"/>
<path d="M51.1356 129.191C50.9798 129.037 50.8195 128.893 50.6774 128.725C49.958 128.073 49.202 127.462 48.478 126.908L19.3362 100.284C18.4858 99.6208 17.5146 99.1356 16.4786 98.8567C15.4426 98.5777 14.3625 98.5103 13.3008 98.6586C12.239 98.8069 11.2167 99.1677 10.2931 99.7204C9.36939 100.273 8.56266 101.006 7.91955 101.878C7.27643 102.75 6.80969 103.743 6.54636 104.799C6.28303 105.856 6.22831 106.955 6.38539 108.033C6.54247 109.111 6.90823 110.146 7.46148 111.08C8.01474 112.013 8.74451 112.825 9.60859 113.47L42.2877 136.487C42.2877 136.487 43.6256 138.225 45.4951 140.681C45.9755 140.24 46.5118 139.867 47.0897 139.572C47.6776 139.264 48.3298 139.104 48.9912 139.106C50.0485 137.718 50.7893 136.108 51.1601 134.394C51.531 132.679 51.5226 130.902 51.1356 129.191Z" fill="#FBDFB6"/>
<path d="M60.3087 137.121C60.1713 135.495 59.012 134.162 57.5366 133.049C55.3189 131.371 52.391 130.174 51.1217 129.195C51.5054 130.906 51.5108 132.682 51.1376 134.395C50.7644 136.108 50.0219 137.716 48.9636 139.101C48.3022 139.099 47.65 139.259 47.062 139.567C46.4935 139.866 45.9666 140.241 45.495 140.681C47.0025 142.694 48.849 145.191 50.5902 147.628C50.6177 147.6 50.6223 147.553 50.659 147.535L52.336 146.496C52.4376 146.436 52.558 146.418 52.6722 146.446C52.7865 146.473 52.8859 146.545 52.95 146.645C53.0085 146.749 53.0254 146.872 52.9972 146.988C52.9691 147.104 52.898 147.205 52.7988 147.269L51.1217 148.308C51.1217 148.308 51.0942 148.308 51.0805 148.308C51.4287 148.802 51.777 149.291 52.1069 149.771C52.1344 149.705 52.1768 149.646 52.2306 149.599L53.9122 148.56C54.0097 148.53 54.1142 148.534 54.2092 148.571C54.3042 148.609 54.3842 148.677 54.4368 148.766C54.4893 148.854 54.5113 148.958 54.4993 149.061C54.4872 149.164 54.4419 149.26 54.3704 149.333L52.6934 150.372C52.643 150.405 52.588 150.372 52.5376 150.372C52.8675 150.838 53.1882 151.304 53.4907 151.77C53.5227 151.733 53.5319 151.677 53.5731 151.649L55.2547 150.61C55.3522 150.58 55.4567 150.584 55.5517 150.621C55.6467 150.659 55.7268 150.727 55.7793 150.816C55.8318 150.904 55.8538 151.008 55.8418 151.111C55.8298 151.214 55.7844 151.31 55.7129 151.383L54.0359 152.423C54.0038 152.446 53.9626 152.423 53.9305 152.423C54.2513 152.888 54.5491 153.354 54.8149 153.82C54.8447 153.725 54.9042 153.641 54.9844 153.583L56.6614 152.544C56.7105 152.493 56.7702 152.455 56.8361 152.431C56.902 152.408 56.9723 152.4 57.0416 152.408C57.1109 152.417 57.1775 152.441 57.2361 152.48C57.2948 152.518 57.344 152.57 57.38 152.631C57.416 152.691 57.4379 152.76 57.444 152.83C57.4501 152.901 57.4402 152.972 57.4151 153.039C57.3899 153.105 57.3503 153.164 57.2991 153.213C57.2478 153.261 57.1865 153.297 57.1196 153.317L55.4426 154.356C55.3573 154.403 55.2587 154.42 55.1631 154.403C55.4701 154.915 55.7313 155.377 55.9237 155.763C58.2147 160.334 58.9249 165.082 60.2996 165.669C59.6443 165.031 61.4634 162.641 63.594 164.309C65.5551 162.613 67.4246 159.379 66.5036 154.445C64.9549 146.165 60.6845 141.613 60.3087 137.121Z" fill="#3D3DBF"/>
<path d="M63.5483 142.391C62.2332 140.206 62.2194 136.772 61.0602 135.225C59.9009 133.678 57.6191 133.072 57.5366 133.049C59.012 134.162 60.1713 135.495 60.3087 137.121C60.6845 141.599 64.9549 146.165 66.5082 154.482C67.4246 159.416 65.5598 162.65 63.5986 164.346C61.468 162.678 59.6489 165.068 60.3042 165.706L60.4829 165.753C68.8634 168.292 71.915 150.573 63.5483 142.391Z" fill="white"/>
<path d="M52.0703 150.233C52.1196 150.306 52.1902 150.362 52.2724 150.393C52.3545 150.424 52.444 150.428 52.5285 150.405L52.0703 149.781C52.0299 149.849 52.0085 149.927 52.0085 150.007C52.0085 150.086 52.0299 150.164 52.0703 150.233Z" fill="white"/>
<path d="M54.3613 149.343C54.4328 149.269 54.4782 149.173 54.4902 149.07C54.5022 148.968 54.4802 148.864 54.4277 148.775C54.3752 148.686 54.2951 148.618 54.2001 148.581C54.1051 148.543 54.0006 148.539 53.9031 148.569L52.2215 149.608C52.1677 149.655 52.1253 149.714 52.0978 149.781L52.556 150.405C52.6064 150.405 52.6614 150.405 52.7118 150.405L54.3613 149.343Z" fill="white"/>
<path d="M50.494 148.159C50.5555 148.25 50.6469 148.316 50.7518 148.345C50.8567 148.374 50.9683 148.365 51.0668 148.318L50.5765 147.633C50.507 147.699 50.4612 147.786 50.4462 147.882C50.4313 147.977 50.4481 148.075 50.494 148.159Z" fill="white"/>
<path d="M52.7851 147.274C52.8843 147.21 52.9554 147.109 52.9836 146.993C53.0117 146.876 52.9948 146.753 52.9363 146.65C52.8722 146.549 52.7728 146.478 52.6586 146.45C52.5443 146.423 52.4239 146.441 52.3223 146.5L50.6453 147.539C50.6086 147.539 50.604 147.605 50.5765 147.633L51.0668 148.318C51.0668 148.318 51.0943 148.318 51.108 148.318L52.7851 147.274Z" fill="white"/>
<path d="M53.4174 152.329C53.4706 152.412 53.5501 152.474 53.6426 152.504C53.7351 152.535 53.8351 152.532 53.926 152.497L53.4678 151.826C53.4087 151.894 53.372 151.979 53.3629 152.069C53.3539 152.16 53.3729 152.251 53.4174 152.329Z" fill="white"/>
<path d="M55.7084 151.421C55.7799 151.347 55.8252 151.251 55.8373 151.148C55.8493 151.046 55.8273 150.942 55.7748 150.853C55.7222 150.764 55.6421 150.696 55.5471 150.659C55.4521 150.622 55.3476 150.617 55.2502 150.647L53.5686 151.686C53.5273 151.714 53.5182 151.77 53.4861 151.808L53.9443 152.478C53.9764 152.478 54.0176 152.478 54.0497 152.478L55.7084 151.421Z" fill="white"/>
<path d="M54.8332 154.244C54.8702 154.301 54.9196 154.348 54.9777 154.382C55.0358 154.416 55.1008 154.436 55.1677 154.44C55.0577 154.254 54.934 154.058 54.8103 153.858C54.7844 153.92 54.7729 153.987 54.7769 154.054C54.7809 154.121 54.8002 154.186 54.8332 154.244Z" fill="white"/>
<path d="M57.1242 153.354C57.1911 153.334 57.2525 153.298 57.3037 153.25C57.3549 153.202 57.3945 153.142 57.4196 153.076C57.4448 153.01 57.4547 152.938 57.4486 152.868C57.4426 152.797 57.4207 152.729 57.3846 152.668C57.3486 152.607 57.2994 152.555 57.2407 152.517C57.1821 152.478 57.1156 152.454 57.0462 152.446C56.9769 152.437 56.9066 152.445 56.8407 152.469C56.7748 152.492 56.7151 152.53 56.666 152.581L54.989 153.62C54.9088 153.679 54.8493 153.762 54.8195 153.858C54.9432 154.058 55.0669 154.254 55.1769 154.44C55.2725 154.457 55.371 154.441 55.4564 154.393L57.1242 153.354Z" fill="white"/>
<path d="M65.3582 135.09C65.1386 135.096 64.9194 135.069 64.7075 135.01L65.349 135.118C65.3541 135.109 65.3573 135.1 65.3582 135.09Z" fill="#F99AB6"/>
<path d="M59.2412 144.716C59.3705 145.361 59.4182 146.02 59.3833 146.678C62.4349 146.608 64.6113 146.589 64.6113 146.589L61.688 145.69C60.8353 145.471 60.0132 145.144 59.2412 144.716Z" fill="#FBDFB6"/>
<path d="M106.757 142.33L68.1212 135.742C67.246 135.514 66.2884 135.276 65.372 135.127L64.7305 135.02C63.1758 135.78 61.8067 136.883 60.7219 138.247C59.6371 139.611 58.8637 141.203 58.4576 142.908C58.8671 143.436 59.1467 144.056 59.2733 144.716C60.0455 145.142 60.8676 145.468 61.7201 145.685L64.6434 146.584L102.716 158.279C104.795 158.829 107.005 158.517 108.858 157.41C110.711 156.303 112.056 154.493 112.597 152.378C113.137 150.263 112.83 148.016 111.742 146.132C110.653 144.248 108.873 142.88 106.794 142.33H106.757Z" fill="#FBDFB6"/>
<path d="M64.6938 135.02C63.1589 134.633 60.4142 133.049 57.7429 132.331C55.965 131.865 54.2193 131.758 52.8813 132.662C49.2157 135.155 43.0299 134.61 35.6666 138.556C31.2999 140.886 29.9757 144.399 29.8978 147.013C32.5004 147.665 31.7994 150.601 30.9013 150.48C32.2072 151.202 36.3081 148.821 41.2475 147.786C41.6645 147.698 42.1639 147.619 42.7688 147.54C42.6971 147.474 42.6474 147.388 42.6267 147.293L42.3793 145.34C42.3548 145.275 42.3454 145.204 42.3515 145.134C42.3577 145.064 42.3794 144.996 42.415 144.936C42.4505 144.876 42.4991 144.824 42.5569 144.786C42.6148 144.747 42.6804 144.722 42.749 144.713C42.8176 144.704 42.8873 144.711 42.9529 144.734C43.0185 144.756 43.0783 144.793 43.1278 144.842C43.1773 144.891 43.2152 144.951 43.2388 145.017C43.2623 145.083 43.2708 145.154 43.2636 145.224L43.5065 147.209C43.5128 147.309 43.4871 147.409 43.4332 147.493C43.928 147.437 44.4733 147.386 45.046 147.335C45.046 147.302 44.9956 147.279 44.9911 147.241L44.7482 145.261C44.7589 145.157 44.8039 145.059 44.8759 144.984C44.948 144.909 45.0428 144.861 45.1451 144.847C45.2474 144.834 45.3512 144.856 45.4396 144.91C45.5281 144.964 45.5961 145.046 45.6325 145.145L45.8754 147.13C45.8754 147.181 45.8479 147.223 45.8387 147.269C46.3748 147.232 46.9338 147.19 47.5112 147.157C47.4837 147.106 47.4379 147.074 47.4333 147.018L47.1859 145.033C47.1751 144.915 47.2089 144.797 47.2804 144.704C47.3519 144.61 47.4557 144.548 47.5708 144.53C47.6875 144.517 47.8043 144.551 47.8972 144.624C47.9901 144.697 48.052 144.803 48.0702 144.921L48.3176 146.906C48.3155 146.978 48.295 147.049 48.2581 147.111L50.0267 147.018C50.0267 147.018 50.0267 147.018 50.0267 146.98L49.7839 144.996C49.7731 144.878 49.807 144.76 49.8784 144.666C49.9499 144.573 50.0537 144.511 50.1688 144.492C50.2855 144.48 50.4023 144.514 50.4952 144.587C50.5881 144.66 50.65 144.766 50.6682 144.884L50.9111 146.864C50.9111 146.906 50.9111 146.938 50.8836 146.976C53.839 146.841 56.9135 146.757 59.4016 146.701C59.4365 146.043 59.3888 145.384 59.2595 144.739C59.133 144.079 58.8534 143.459 58.4439 142.931C58.8445 141.224 59.6129 139.629 60.6938 138.261C61.7746 136.893 63.1409 135.786 64.6938 135.02Z" fill="#3D3DBF"/>
<path d="M53.8665 130.896C51.9558 130.933 49.3073 133.067 46.8055 133.38C35.3 131.823 23.5746 145.298 30.7684 150.382L30.915 150.494C31.8314 150.615 32.5142 147.698 29.9116 147.027C29.9895 144.413 31.3137 140.909 35.6804 138.57C43.0437 134.624 49.2157 135.169 52.8951 132.676C54.233 131.772 55.9788 131.865 57.7566 132.345C57.6696 132.294 55.7451 130.85 53.8665 130.896Z" fill="white"/>
<path d="M47.9281 147.386C48.0054 147.373 48.0776 147.339 48.1361 147.286C48.1946 147.233 48.2369 147.164 48.258 147.088L47.5111 147.134C47.5461 147.215 47.6052 147.283 47.6799 147.328C47.7547 147.373 47.8414 147.393 47.9281 147.386Z" fill="white"/>
<path d="M48.0701 144.898C48.052 144.78 47.9901 144.673 47.8971 144.601C47.8042 144.528 47.6874 144.494 47.5707 144.506C47.4557 144.525 47.3518 144.587 47.2803 144.68C47.2089 144.774 47.1751 144.892 47.1858 145.009L47.4332 146.994C47.4332 147.05 47.4836 147.083 47.5111 147.134L48.258 147.088C48.2949 147.026 48.3154 146.955 48.3175 146.882L48.0701 144.898Z" fill="white"/>
<path d="M50.5032 147.348C50.5957 147.328 50.6798 147.279 50.7438 147.208C50.8078 147.137 50.8486 147.048 50.8607 146.952L50.0267 146.994C50.0524 147.101 50.1143 147.195 50.2015 147.26C50.2886 147.325 50.3955 147.356 50.5032 147.348Z" fill="white"/>
<path d="M50.6453 144.874C50.6272 144.756 50.5653 144.65 50.4723 144.577C50.3794 144.505 50.2626 144.471 50.1459 144.483C50.0309 144.501 49.9271 144.564 49.8556 144.657C49.7841 144.751 49.7502 144.868 49.761 144.986L50.0038 146.971C50.0038 146.971 50.0038 146.971 50.0038 147.008L50.8377 146.966C50.8377 146.929 50.8698 146.896 50.8652 146.855L50.6453 144.874Z" fill="white"/>
<path d="M45.495 147.609C45.5835 147.594 45.665 147.551 45.7277 147.486C45.7903 147.42 45.8308 147.336 45.8432 147.246L45.0505 147.311C45.0803 147.405 45.1405 147.485 45.2213 147.54C45.3021 147.594 45.3986 147.618 45.495 147.609Z" fill="white"/>
<path d="M45.6325 145.121C45.596 145.023 45.528 144.94 45.4396 144.886C45.3511 144.833 45.2473 144.811 45.145 144.824C45.0427 144.837 44.9479 144.886 44.8759 144.961C44.8039 145.036 44.7589 145.133 44.7482 145.238L44.991 147.218C44.991 147.255 45.0323 147.279 45.046 147.311L45.8387 147.246C45.8387 147.199 45.8845 147.157 45.8754 147.106L45.6325 145.121Z" fill="white"/>
<path d="M43.1216 147.67C43.1865 147.66 43.2483 147.635 43.3023 147.597C43.3563 147.559 43.4011 147.509 43.4331 147.451L42.7642 147.526C42.8082 147.577 42.8636 147.617 42.9257 147.642C42.9879 147.667 43.055 147.676 43.1216 147.67Z" fill="white"/>
<path d="M43.2637 145.2C43.2708 145.131 43.2623 145.06 43.2388 144.994C43.2153 144.928 43.1774 144.868 43.1279 144.819C43.0783 144.77 43.0185 144.732 42.953 144.71C42.8874 144.688 42.8176 144.681 42.749 144.69C42.6805 144.699 42.6148 144.724 42.5569 144.762C42.4991 144.801 42.4506 144.852 42.415 144.913C42.3794 144.973 42.3577 145.041 42.3516 145.111C42.3454 145.181 42.3549 145.251 42.3793 145.317L42.6222 147.297C42.6429 147.393 42.6926 147.479 42.7642 147.544L43.4332 147.47C43.4871 147.385 43.5128 147.286 43.5065 147.185L43.2637 145.2Z" fill="white"/>
<path d="M35.9919 85.6535C35.9919 85.6535 17.6638 84.9639 14.2043 84.7216C10.7449 84.4794 7.25339 87.3635 6.41487 89.3531C5.57636 91.3426 9.92928 95.373 11.0381 95.9694C12.147 96.5658 13.5399 92.801 17.6271 93.0573C21.7143 93.3135 39.0161 94.32 39.0161 94.32L35.9919 85.6535Z" fill="#FBDFB6"/>
<path d="M66.1142 54.403C66.1938 53.4165 66.068 52.4241 65.7451 51.4903C65.4222 50.5566 64.9095 49.7025 64.2402 48.9837C63.571 48.265 62.7604 47.6977 61.8611 47.3188C60.9619 46.94 59.9943 46.758 59.0212 46.7849C55.4656 46.8781 52.6064 49.9207 52.2994 53.5224C51.5754 61.8254 47.6395 80.2859 40.3403 83.1095C38.971 83.5665 37.494 83.5665 36.1248 83.1095C34.7735 82.693 33.3291 82.7078 31.9862 83.1518C30.6434 83.5959 29.4667 84.4479 28.6148 85.593L28.5415 85.7001C25.7923 89.4603 27.3319 95.0189 31.7489 96.4167C36.4868 97.945 41.0138 97.9077 45.2705 96.263C62.4486 89.6327 65.656 60.2273 66.1142 54.403Z" fill="white"/>
<path d="M54.5217 4.80383C61.1932 -1.15553 78.1376 2.87484 82.4722 15.5204C86.8068 28.166 78.1696 38.8453 73.7663 40.3829C57.7658 26.7076 54.5217 4.80383 54.5217 4.80383Z" fill="#3D3DBF"/>
<path d="M56.4141 49.8228C56.4141 49.8228 51.4334 64.4207 51.832 77.043C51.8824 86.3151 50.8515 88.7893 48.2855 99.1378C48.2855 105.325 75.5944 121.079 86.8342 104.925C82.9669 94.5762 79.8741 77.3225 87.1412 58.8387C84.6257 55.4141 77.3723 51.2206 73.9816 49.2171C67.7088 45.5315 65.2345 45.9555 65.2345 45.9555L56.4141 49.8228Z" fill="white"/>
<path d="M66.2162 59.2026C71.8833 58.5002 76.1606 55.2884 75.7699 52.029C75.3791 48.7696 70.4683 46.6968 64.8013 47.3992C59.1342 48.1017 54.8569 51.3135 55.2476 54.5729C55.6384 57.8323 60.5492 59.9051 66.2162 59.2026Z" fill="#FBDFB6"/>
<path d="M48.2718 11.4714C48.2718 11.4714 45.6463 16.2333 46.1549 24.3034C46.6681 30.929 45.5638 38.0672 47.1812 41.585C48.7987 45.1029 56.2308 51.626 67.5301 46.0347C76.3826 41.175 77.3998 30.929 77.3998 30.929C77.3998 30.929 80.149 29.3355 80.5568 27.9097C81.4732 26.428 81.267 21.6149 76.2818 24.3034C71.1086 8.1679 53.2845 4.16084 48.2718 11.4714Z" fill="#FBDFB6"/>
<path d="M69.9677 43.1552H61.1198V52.1525H69.9677V43.1552Z" fill="#FBDFB6"/>
<path d="M72.135 16.4197C72.135 16.4197 50.1962 25.9714 42.0814 4.52427C48.5742 3.59239 53.509 1.41179 57.8024 0.330809C62.0958 -0.750169 75.3241 0.260918 72.135 16.4197Z" fill="#3D3DBF"/>
<path d="M56.4461 104.72C56.4461 104.72 51.7954 104.785 50.0313 104.217C48.5467 103.751 49.0919 106.728 53.1974 106.765C57.303 106.802 56.4461 104.72 56.4461 104.72Z" fill="#FBDFB6"/>
<path d="M2.24586 101.891L2.2406 101.897H2.25638L2.24586 101.891Z" fill="white"/>
<path d="M43.7768 126.283L46.6543 127.975L46.6635 127.965V127.97L43.7859 126.279L5.1227 103.583L2.25435 101.896H2.2406L5.11812 103.588L43.7768 126.283Z" fill="white"/>
<path d="M60.6158 98.8256L48.7299 91.8365C48.6954 91.8269 48.6617 91.8145 48.6292 91.7993L60.6753 98.8769C60.6662 98.8676 60.6616 98.8442 60.6158 98.8256Z" fill="#B9B8F1"/>
<path d="M59.4473 113.428L45.999 105.535L46.2694 109.943L47.0392 122.467V122.565L57.0738 116.676L59.1999 115.427C60.2125 114.835 60.3225 113.941 59.4473 113.428Z" fill="#B9B8F1"/>
<path d="M60.6937 98.8862L48.6475 91.8086C48.0912 91.5741 47.4912 91.4664 46.8896 91.4929C46.2879 91.5195 45.6994 91.6797 45.1652 91.9623L45.408 95.8949L45.8937 103.816L49.0049 105.642C49.9442 106.192 51.6029 106.108 52.6705 105.489L60.35 100.978C61.4176 100.368 61.5322 99.4453 60.6937 98.8862Z" fill="#B9B8F1"/>
<path d="M47.3553 127.602L47.3508 127.565L46.6635 127.965L47.3553 127.602Z" fill="white"/>
<path d="M46.5215 122.775L46.3519 122.873L46.3565 122.971L47.0438 122.565L47.0392 122.472L46.5215 122.775Z" fill="white"/>
<path d="M77.0057 106.774L43.7539 87.247C43.3069 86.516 42.704 85.8965 41.9898 85.4345L3.34029 62.7386C3.12225 62.5874 2.87506 62.4851 2.61515 62.4385C2.35523 62.392 2.08856 62.4021 1.83281 62.4684C1.72868 62.5039 1.62996 62.5541 1.53955 62.6175L1.02637 62.8738C1.29514 62.7733 1.58379 62.7402 1.8678 62.7776C2.1518 62.8149 2.42275 62.9214 2.65757 63.0881L41.3162 85.784L41.3758 85.8306C42.4666 86.6017 43.3097 87.6827 43.7997 88.9384C44.1567 89.7572 44.3751 90.6315 44.4458 91.5243L44.4916 92.3351L44.7344 96.2443L45.1926 103.373L45.298 105.083L45.5683 109.496L46.3885 122.859L46.5627 122.756L47.0804 122.453L46.2694 109.929L45.9991 105.521L59.4474 113.414C60.3225 113.927 60.2125 114.812 59.2045 115.413L57.0785 116.662L47.0438 122.551L46.3565 122.957L46.4115 123.888L46.6635 127.937L47.3508 127.537L49.9763 125.994L72.6849 112.659L76.5613 110.395C77.5785 109.798 78.0733 109.034 78.0596 108.312C78.0331 107.984 77.9217 107.669 77.7366 107.399C77.5514 107.129 77.2993 106.913 77.0057 106.774ZM60.3684 100.988L52.6889 105.498C51.6029 106.132 49.9396 106.201 49.0232 105.652L45.912 103.825L45.4263 95.9042L45.1835 91.9716C45.7177 91.689 46.3063 91.5288 46.9079 91.5022C47.5095 91.4757 48.1095 91.5834 48.6658 91.8179C48.6984 91.8331 48.7321 91.8456 48.7666 91.8552L60.6524 98.8442C60.6799 98.8442 60.6845 98.8862 60.712 98.9048C61.5322 99.4453 61.4176 100.368 60.3684 100.988Z" fill="white"/>
<path d="M2.25438 101.896L5.12274 103.583L43.7814 126.279L46.6589 127.97L46.4115 123.907L46.3565 122.975V122.877L45.5363 109.514L45.266 105.102L45.1606 103.392L44.7024 96.2629L44.4595 92.3537L44.4137 91.543C44.3431 90.6501 44.1247 89.7759 43.7676 88.957C43.2776 87.7013 42.4345 86.6204 41.3438 85.8492L41.2842 85.8026L2.63926 63.1021C2.40444 62.9354 2.13352 62.8289 1.84951 62.7916C1.5655 62.7542 1.27682 62.7872 1.00805 62.8877C0.329911 63.1999 -0.0733047 64.1085 0.00917205 65.4597L0.297843 70.1844L1.99779 97.8425L2.24521 101.891L2.25438 101.896ZM16.9948 91.4405C17.453 89.5441 19.6249 88.8965 21.8472 89.9914C21.9617 90.0473 22.0671 90.1219 22.1817 90.1871C22.64 90.4426 23.0649 90.7557 23.4463 91.119C24.6972 92.3397 25.3753 94.0031 25.0409 95.387C24.5826 97.2833 22.4108 97.931 20.1885 96.8361C19.1443 96.3168 18.2647 95.5096 17.65 94.5064C17.3909 94.0891 17.1933 93.6354 17.0635 93.1598C16.9008 92.6013 16.8772 92.0105 16.9948 91.4405Z" fill="#2143AF"/>
<path d="M78.0595 108.331C78.0595 109.053 77.5784 109.817 76.5612 110.414L72.6848 112.687L49.9762 126.022L47.3507 127.565V127.602L46.6588 127.965L43.7813 126.279L5.12265 103.583L2.24512 101.891V103.583L5.12265 105.27L43.7813 127.965L46.6588 129.657L49.9808 127.705L72.6894 114.374L76.5658 112.1C77.6059 111.49 78.1191 110.702 78.0824 109.962V108.326L78.0595 108.331Z" fill="#2143AF"/>
<path d="M23.4463 91.1376C23.0649 90.7743 22.64 90.4612 22.1817 90.2058C22.0671 90.1405 21.9618 90.066 21.8472 90.0101C19.6249 88.9151 17.453 89.5441 16.9948 91.4591C16.8718 92.0396 16.8954 92.6424 17.0636 93.2111C17.1933 93.6867 17.3909 94.1403 17.65 94.5576C18.2647 95.5608 19.1443 96.3681 20.1885 96.8873C22.4108 97.9823 24.5827 97.3533 25.0409 95.4383C25.3754 94.0218 24.6972 92.3584 23.4463 91.1376Z" fill="white"/>
<path d="M75.9518 99.6783C75.9518 99.6783 58.1552 104.105 54.737 104.832C51.3188 105.558 48.7804 109.305 48.5146 111.443C48.2488 113.582 53.509 116.256 54.737 116.527C55.965 116.797 56.2949 112.799 60.2904 111.891C64.286 110.982 81.2075 107.166 81.2075 107.166L75.9518 99.6783Z" fill="#FBDFB6"/>
<path d="M86.9991 57.9908C86.6155 57.0811 86.0478 56.2638 85.333 55.592C84.6182 54.9202 83.7723 54.409 82.8504 54.0917C81.9284 53.7743 80.9511 53.658 79.982 53.7502C79.0129 53.8423 78.0737 54.141 77.2256 54.6267C74.1282 56.3973 73.001 60.4416 74.3756 63.7731C77.551 71.4611 82.55 89.656 77.3952 95.6153C76.3885 96.6657 75.0788 97.3626 73.6562 97.6049C72.2689 97.874 70.9968 98.5712 70.0129 99.6017C69.0291 100.632 68.3814 101.946 68.1578 103.364C68.1578 103.415 68.1578 103.462 68.1349 103.513C67.4201 108.149 71.3423 112.315 75.8923 111.481C80.7859 110.581 84.7677 108.396 87.7781 104.92C99.9159 90.8954 89.2581 63.3677 86.9991 57.9908Z" fill="white"/>
</g>
<defs>
<clipPath id="clip0">
<rect width="115" height="166" fill="white"/>
</clipPath>
</defs>
</svg>
