<svg width="39" height="39" viewBox="0 0 39 39" fill="none" xmlns="http://www.w3.org/2000/svg">
<g clip-path="url(#clip0)">
<path d="M35.9689 15.3648C36.6751 14.6764 36.9244 13.6661 36.6197 12.7282C36.315 11.7903 35.5194 11.1196 34.5435 10.9779L26.01 9.73788C25.8425 9.71358 25.6977 9.60839 25.6227 9.4565L21.8064 1.72391C21.37 0.839558 20.4863 0.290207 19.5001 0.290207C18.5139 0.290207 17.6301 0.839558 17.1938 1.72391L13.3775 9.45658C13.3024 9.60839 13.1577 9.71358 12.9901 9.73796L4.45676 10.9779C3.48084 11.1196 2.68538 11.7903 2.38054 12.7282C2.0757 13.6661 2.32509 14.6764 3.03135 15.3648L9.20623 21.3838C9.32741 21.502 9.38279 21.6723 9.35415 21.8392L7.89645 30.3381C7.72979 31.3101 8.12177 32.2739 8.91959 32.8536C9.71741 33.4334 10.7555 33.5083 11.6283 33.0495L19.2608 29.0369C19.4107 28.958 19.5896 28.958 19.7396 29.0369L27.3722 33.0495C27.7518 33.2491 28.1626 33.3477 28.5714 33.3477C29.1023 33.3477 29.6299 33.1813 30.0806 32.8535C30.8784 32.2738 31.2705 31.3099 31.1037 30.338L29.646 21.8391C29.6175 21.6722 29.6728 21.5019 29.794 21.3837L35.9689 15.3648ZM27.6183 22.187L29.076 30.6861C29.1247 30.9706 28.9491 31.1327 28.8714 31.1892C28.7935 31.2455 28.585 31.3626 28.3296 31.2283L20.6971 27.2156C20.3224 27.0187 19.9113 26.9201 19.5002 26.9201C19.0891 26.9201 18.678 27.0187 18.3034 27.2155L10.6709 31.2281C10.4155 31.3624 10.207 31.2455 10.1292 31.189C10.0514 31.1326 9.87578 30.9704 9.9246 30.686L11.3823 22.187C11.5254 21.3526 11.249 20.5016 10.6426 19.9106L4.46773 13.8915C4.26107 13.69 4.30784 13.4556 4.33762 13.3642C4.36725 13.2727 4.46727 13.0555 4.75284 13.0141L13.2861 11.7741C14.124 11.6524 14.848 11.1265 15.2227 10.3671L19.039 2.63447C19.1668 2.37572 19.4041 2.34776 19.5003 2.34776C19.5964 2.34776 19.8337 2.37564 19.9615 2.63447V2.63455L23.7778 10.3672C24.1525 11.1266 24.8765 11.6525 25.7143 11.7742L34.2477 13.0142C34.5333 13.0556 34.6332 13.2728 34.6629 13.3643C34.6926 13.4558 34.7395 13.6902 34.5328 13.8916L28.3579 19.9106C27.7516 20.5016 27.4751 21.3526 27.6183 22.187Z" fill="#E13190"/>
<path d="M31.5186 1.7234C31.0588 1.38946 30.4155 1.49138 30.0816 1.951L28.9895 3.45402C28.6556 3.91364 28.7574 4.55707 29.2171 4.891C29.3999 5.02362 29.6114 5.08753 29.821 5.08753C30.1392 5.08753 30.4529 4.94044 30.6541 4.66348L31.7462 3.16045C32.0801 2.70076 31.9783 2.05733 31.5186 1.7234Z" fill="#E13190"/>
<path d="M10.0059 3.44793L8.91384 1.94491C8.57998 1.48544 7.93664 1.38352 7.47686 1.71731C7.01724 2.05124 6.91532 2.69467 7.24926 3.15429L8.34134 4.65731C8.54266 4.9345 8.85633 5.08151 9.17458 5.08151C9.38428 5.08151 9.59589 5.0176 9.7784 4.88491C10.238 4.55105 10.3399 3.90763 10.0059 3.44793Z" fill="#E13190"/>
<path d="M3.77445 23.3717C3.59888 22.8314 3.01852 22.5357 2.47808 22.7112L0.711125 23.2854C0.170686 23.461 -0.124937 24.0415 0.0506389 24.5818C0.191862 25.0167 0.595192 25.293 1.02884 25.293C1.13418 25.293 1.24136 25.2766 1.34701 25.2423L3.11397 24.6681C3.65433 24.4925 3.95003 23.9122 3.77445 23.3717Z" fill="#E13190"/>
<path d="M19.5003 34.7942C18.9322 34.7942 18.4716 35.2548 18.4716 35.823V37.681C18.4716 38.2492 18.9322 38.7098 19.5003 38.7098C20.0685 38.7098 20.5291 38.2492 20.5291 37.681V35.823C20.5291 35.2548 20.0686 34.7942 19.5003 34.7942Z" fill="#E13190"/>
<path d="M38.2889 23.2869L36.5219 22.7127C35.9817 22.5373 35.4011 22.8328 35.2256 23.3733C35.05 23.9137 35.3456 24.4941 35.8861 24.6696L37.653 25.2438C37.7587 25.2781 37.8658 25.2944 37.9711 25.2944C38.4048 25.2944 38.8082 25.018 38.9494 24.5832C39.125 24.0428 38.8293 23.4625 38.2889 23.2869Z" fill="#E13190"/>
</g>
<defs>
<clipPath id="clip0">
<rect width="39" height="39" fill="white"/>
</clipPath>
</defs>
</svg>
