<svg width="57" height="53" viewBox="0 0 57 53" fill="none" xmlns="http://www.w3.org/2000/svg">
<g clip-path="url(#clip0)">
<path d="M41.6868 34.4151C41.6415 34.4106 35.0802 34.5906 34.1046 28.0527C35.1886 27.3494 36.1877 26.4364 37.0678 25.3286C38.7801 23.1734 39.8833 20.4698 40.2763 17.5454C40.4114 17.4318 40.5231 17.2905 40.5984 17.124C41.3094 15.549 41.67 13.8673 41.67 12.1253C41.67 5.43944 36.246 0 29.5786 0C27.8348 0 26.1431 0.373484 24.5453 1.11103C23.9358 1.1543 23.3385 1.25399 22.7657 1.40781C20.0274 2.1435 17.7991 4.03131 16.4911 6.72375C15.2212 9.33794 14.971 12.4154 15.7866 15.3893C15.9589 16.0175 16.178 16.6349 16.4378 17.2247C16.5082 17.3842 16.6131 17.5203 16.739 17.6323C17.3756 22.1969 19.7113 25.9788 22.8962 28.0436C21.9176 34.5925 15.3586 34.4108 15.3134 34.4153C10.5951 34.5642 6.80518 38.1772 6.80518 42.6V51.8068C6.80518 52.4659 7.37974 53.0001 8.08857 53.0001H19.3584H37.6415H48.9116C49.6203 53.0001 50.1951 52.4659 50.1951 51.8068V42.6C50.195 38.177 46.4054 34.5639 41.6868 34.4151ZM23.4783 3.70079C23.9467 3.57491 24.4413 3.50028 24.9485 3.47906C25.1368 3.47119 25.3208 3.42492 25.4877 3.34335C26.787 2.70859 28.1635 2.38676 29.5787 2.38676C34.8305 2.38676 39.1032 6.75543 39.1032 12.1253C39.1032 12.2865 39.0984 12.4468 39.0908 12.6065C38.0721 11.6447 36.6568 11.0469 35.0939 11.0469H26.3467C25.8263 11.0469 25.3323 10.8949 24.918 10.6073C24.5644 10.3619 24.2909 10.032 24.1276 9.65335C23.8747 9.06766 23.251 8.70132 22.5721 8.74096C21.8908 8.78133 21.3175 9.22128 21.1454 9.83605C20.6385 11.6472 19.6277 13.3154 18.241 14.6683C16.9507 9.73068 19.2794 4.8288 23.4783 3.70079ZM22.3617 24.3407C20.6917 22.4436 19.598 19.8819 19.2513 17.0774C20.8708 15.7353 22.1511 14.0652 22.9846 12.2127C23.1111 12.3212 23.2439 12.4237 23.3826 12.5201C24.2438 13.1177 25.2687 13.4337 26.3468 13.4337H35.094C36.3316 13.4337 37.3984 14.124 37.8744 15.1118C37.8743 15.1203 37.873 15.1284 37.873 15.1369C37.873 21.8735 33.6692 27.3541 28.502 27.3541C26.2532 27.3542 24.0724 26.284 22.3617 24.3407ZM25.3107 29.2155C26.3281 29.5579 27.3983 29.741 28.502 29.741C29.5969 29.741 30.6667 29.5638 31.6908 29.2218C32.1607 31.4983 33.5219 33.4823 35.4233 34.8482L28.684 43.7721C28.6401 43.8304 28.579 43.8599 28.5024 43.8599C28.4259 43.8599 28.3648 43.8303 28.3209 43.7722L21.58 34.8463C23.4815 33.4788 24.8422 31.4933 25.3107 29.2155ZM47.6281 50.6132H37.6415H19.3584H9.37196V42.5998C9.37196 39.3989 12.1726 36.7947 15.6151 36.7947C15.6619 36.7947 17.7271 36.748 19.359 36.0585L26.22 45.1437C26.7415 45.8343 27.5947 46.2466 28.5022 46.2466C28.5022 46.2466 28.5022 46.2466 28.5024 46.2466C29.4098 46.2466 30.2631 45.8343 30.7846 45.1437L37.6444 36.06C39.5055 36.7948 41.3383 36.7948 41.385 36.7948C44.8275 36.7948 47.6281 39.399 47.6281 42.5999V50.6132Z" fill="#E13190"/>
</g>
<defs>
<clipPath id="clip0">
<rect width="57" height="53" fill="white"/>
</clipPath>
</defs>
</svg>
