<svg width="39" height="39" viewBox="0 0 39 39" fill="none" xmlns="http://www.w3.org/2000/svg">
<g clip-path="url(#clip0)">
<path d="M28.5225 25.3243C28.4915 25.321 24.0022 25.4534 23.3347 20.6426C24.0764 20.1251 24.7599 19.4532 25.3622 18.638C26.5337 17.0521 27.2885 15.0627 27.5574 12.9108C27.6498 12.8272 27.7263 12.7232 27.7778 12.6007C28.2643 11.4417 28.511 10.2042 28.511 8.92239C28.511 4.0026 24.7999 0 20.2379 0C19.0448 0 17.8873 0.274828 16.7941 0.817553C16.3771 0.849393 15.9684 0.922746 15.5765 1.03594C13.7029 1.57729 12.1783 2.96644 11.2833 4.94767C10.4145 6.87131 10.2433 9.13583 10.8013 11.3242C10.9192 11.7865 11.0691 12.2407 11.2469 12.6748C11.295 12.7922 11.3668 12.8923 11.4529 12.9747C11.8885 16.3335 13.4867 19.1165 15.6658 20.6359C14.9962 25.4549 10.5085 25.3211 10.4776 25.3245C7.24925 25.434 4.65613 28.0926 4.65613 31.3472V38.122C4.65613 38.607 5.04925 39.0001 5.53424 39.0001H13.2452H25.7547H33.4658C33.9507 39.0001 34.344 38.607 34.344 38.122V31.3472C34.3439 28.0925 31.751 25.4338 28.5225 25.3243ZM16.0641 2.72322C16.3845 2.6306 16.723 2.57568 17.07 2.56006C17.1988 2.55427 17.3247 2.52022 17.4389 2.4602C18.3279 1.99311 19.2697 1.75629 20.238 1.75629C23.8313 1.75629 26.7548 4.97098 26.7548 8.92239C26.7548 9.04099 26.7515 9.15898 26.7463 9.27652C26.0493 8.56873 25.0809 8.12883 24.0116 8.12883H18.0267C17.6706 8.12883 17.3326 8.01701 17.0491 7.80541C16.8071 7.6248 16.6201 7.38204 16.5083 7.10341C16.3353 6.67243 15.9085 6.40286 15.444 6.43203C14.9779 6.46174 14.5856 6.78547 14.4678 7.23785C14.121 8.57055 13.4295 9.79814 12.4807 10.7936C11.5978 7.16031 13.1911 3.55327 16.0641 2.72322ZM15.3001 17.9111C14.1574 16.5151 13.4091 14.6301 13.1719 12.5664C14.28 11.5788 15.156 10.3499 15.7263 8.98668C15.8128 9.06651 15.9037 9.142 15.9986 9.21291C16.5878 9.65265 17.2891 9.8852 18.0267 9.8852H24.0116C24.8584 9.8852 25.5883 10.3931 25.914 11.12C25.9139 11.1263 25.913 11.1322 25.913 11.1385C25.913 16.0956 23.0368 20.1285 19.5013 20.1285C17.9627 20.1286 16.4705 19.341 15.3001 17.9111ZM17.3178 21.4982C18.0139 21.7501 18.7462 21.8849 19.5013 21.8849C20.2505 21.8849 20.9824 21.7545 21.6831 21.5029C22.0047 23.178 22.936 24.6379 24.2369 25.643L19.6259 32.2097C19.5958 32.2525 19.554 32.2743 19.5016 32.2743C19.4492 32.2743 19.4074 32.2525 19.3774 32.2097L14.7652 25.6416C16.0662 24.6354 16.9973 23.1743 17.3178 21.4982ZM32.5876 37.2437H25.7547H13.2452H6.41235V31.347C6.41235 28.9916 8.3286 27.0754 10.684 27.0754C10.716 27.0754 12.129 27.041 13.2456 26.5336L17.94 33.2189C18.2968 33.7272 18.8805 34.0305 19.5015 34.0305C19.5015 34.0305 19.5015 34.0305 19.5016 34.0305C20.1224 34.0305 20.7063 33.7272 21.0631 33.2189L25.7567 26.5347C27.03 27.0754 28.284 27.0754 28.316 27.0754C30.6714 27.0754 32.5876 28.9917 32.5876 31.3471V37.2437Z" fill="#686464"/>
</g>
<defs>
<clipPath id="clip0">
<rect width="39" height="39" fill="white"/>
</clipPath>
</defs>
</svg>
