<svg width="42" height="41" viewBox="0 0 42 41" fill="none" xmlns="http://www.w3.org/2000/svg">
<path d="M39.3248 7.13736H2.6752C1.20012 7.13736 0 8.3089 0 9.74887V31.2511C0 32.6911 1.20012 33.8626 2.6752 33.8626H39.3248C40.7999 33.8626 42 32.6911 42 31.2511V9.74887C42 8.3089 40.7999 7.13736 39.3248 7.13736ZM40.2166 31.251C40.2166 31.731 39.8165 32.1216 39.3248 32.1216H2.6752C2.18351 32.1216 1.78344 31.731 1.78344 31.251V9.74879C1.78344 9.2688 2.18351 8.87826 2.6752 8.87826H39.3248C39.8165 8.87826 40.2166 9.2688 40.2166 9.74879V31.251Z" fill="white"/>
<path d="M34.626 14.7749H25.0558C24.5633 14.7749 24.1641 15.1647 24.1641 15.6454C24.1641 16.1262 24.5633 16.5159 25.0558 16.5159H34.626C35.1185 16.5159 35.5178 16.1262 35.5178 15.6454C35.5178 15.1647 35.1185 14.7749 34.626 14.7749Z" fill="white"/>
<path d="M34.626 19.6295H25.0558C24.5633 19.6295 24.1641 20.0192 24.1641 20.5C24.1641 20.9807 24.5633 21.3705 25.0558 21.3705H34.626C35.1185 21.3705 35.5178 20.9807 35.5178 20.5C35.5178 20.0192 35.1185 19.6295 34.626 19.6295Z" fill="white"/>
<path d="M34.626 24.4841H25.0558C24.5633 24.4841 24.1641 24.8739 24.1641 25.3546C24.1641 25.8353 24.5633 26.2251 25.0558 26.2251H34.626C35.1185 26.2251 35.5178 25.8353 35.5178 25.3546C35.5178 24.8739 35.1185 24.4841 34.626 24.4841Z" fill="white"/>
<path d="M16.4675 23.2421C16.4495 23.2409 14.8174 23.3073 14.3766 21.5837C14.9722 21.1261 15.472 20.4902 15.8292 19.7307C15.8556 19.7333 15.882 19.7365 15.9083 19.7365C16.1514 19.7364 16.3868 19.6283 16.5415 19.4342C17.2904 18.4953 17.6798 17.2762 17.6381 16.0015C17.5515 13.3586 15.668 11.2751 13.3469 11.2506C13.2834 11.2481 13.2269 11.2497 13.1812 11.2513C13.1801 11.2513 13.1791 11.2514 13.1779 11.2514C12.6148 11.0131 12.0215 10.9015 11.4102 10.9211C10.1032 10.9619 8.9041 11.5939 8.03391 12.7007C7.20006 13.7612 6.76685 15.1411 6.81419 16.5867C6.82223 16.8312 6.84208 17.0567 6.87391 17.2704C6.96028 17.8858 7.13419 18.4759 7.39078 19.0238C7.51408 19.2872 7.77625 19.4628 8.07255 19.4801C8.15318 19.4852 8.23234 19.4771 8.30847 19.4592C8.67162 20.3379 9.22033 21.0691 9.88396 21.5796C9.4519 23.3003 7.81021 23.2412 7.79225 23.2423C6.03768 23.2983 4.62781 24.7081 4.62781 26.4342V29.6064C4.62781 30.0392 4.9871 30.3899 5.4304 30.3899H18.8293C19.2726 30.3899 19.6319 30.0392 19.6319 29.6064V26.4342C19.632 24.7079 18.222 23.2982 16.4675 23.2421ZM8.47409 17.1229C8.4704 17.099 8.46687 17.0749 8.46342 17.0508C8.43947 16.8897 8.42479 16.7213 8.41872 16.5362C8.38312 15.4518 8.69869 14.4285 9.30736 13.6546C9.87928 12.9271 10.6446 12.5125 11.4617 12.487C11.4887 12.4861 12.1301 12.4365 12.6696 12.7478C12.7825 12.813 12.9209 12.8324 13.0514 12.8293C13.0679 12.8289 13.3084 12.8171 13.3206 12.8171C14.7586 12.8264 15.9759 14.2772 16.034 16.0513C16.0407 16.2546 16.0324 16.4554 16.0097 16.6518C15.4786 15.7619 14.6896 15.0727 13.7507 14.6873C13.5489 14.6046 13.3212 14.6058 13.1203 14.6907C12.9194 14.7758 12.7629 14.9373 12.687 15.1377C12.625 15.3012 12.5497 15.4606 12.4634 15.6115C12.2526 15.9794 11.8215 16.1964 11.3382 16.1815C11.2421 16.1783 11.1449 16.1782 11.0494 16.1811C10.5791 16.1959 10.1205 16.2834 9.68298 16.4425C9.246 16.6036 8.83987 16.8323 8.47409 17.1229ZM9.59259 18.2601C9.79594 18.1134 10.0194 18.0049 10.2469 17.9098C10.6616 17.7362 11.2221 17.7456 11.2827 17.7477C12.3165 17.782 13.2603 17.3098 13.7854 16.5053C14.1949 16.8116 14.5332 17.2242 14.7691 17.713C14.5205 19.4713 13.3996 20.8089 12.1276 20.8089C10.9928 20.8089 9.97428 19.7611 9.59259 18.2601ZM11.3562 22.2876C11.6074 22.3454 11.8652 22.3758 12.1276 22.3758C12.3925 22.3758 12.6519 22.3452 12.9039 22.2878C13.1625 23.0941 13.7058 23.7782 14.4177 24.2292C14.0753 25.149 13.1694 25.7939 12.13 25.7939C11.0906 25.7939 10.1847 25.149 9.84221 24.2292C10.5542 23.7781 11.0975 23.0939 11.3562 22.2876ZM6.23308 28.8228V26.4341C6.23308 25.5365 6.98112 24.8064 7.90061 24.8064C7.91898 24.8064 8.21175 24.7899 8.33718 24.7735C8.90861 26.2951 10.409 27.3609 12.1299 27.3609C13.8507 27.3609 15.3512 26.2951 15.9226 24.7735C16.0482 24.7899 16.3407 24.8064 16.3591 24.8064C17.2787 24.8064 18.0266 25.5366 18.0266 26.4341V28.8228H6.23308Z" fill="white"/>
</svg>
